# Blender v2.79 (sub 0) OBJ File: 'plant.blend'
# www.blender.org
mtllib plant.mtl
o pCylinder2
v 0.003522 -0.004322 -0.000000
v -0.039173 -0.004322 0.067850
v -0.039173 0.402034 0.067850
v 0.003522 0.402034 0.000000
v 0.078346 -0.004322 -0.000000
v 0.078346 0.402034 0.000000
v -0.039173 -0.004322 -0.067850
v -0.039173 0.402034 -0.067850
v 1.334989 3.500146 0.000001
v 1.321028 3.540493 0.067850
v 1.727844 3.635563 0.067850
v 1.733211 3.593207 0.000001
v 1.321028 3.540493 -0.067849
v 1.727844 3.635563 -0.067849
v 1.359455 3.429434 0.000001
v 1.742616 3.518976 0.000001
v 0.964409 3.327196 0.000001
v 0.942451 3.363811 0.067850
v 0.942451 3.363811 -0.067849
v 1.002891 3.263026 0.000001
v 0.637305 3.081749 0.000001
v 0.608288 3.113067 0.067850
v 0.608288 3.113067 -0.067849
v 0.688159 3.026862 0.000000
v 0.367655 2.774291 0.000000
v 0.332819 2.798975 0.067850
v 0.332819 2.798975 -0.067849
v 0.428708 2.731033 0.000000
v 0.166981 2.417962 0.000000
v 0.127814 2.434955 0.067850
v 0.127814 2.434955 -0.067849
v 0.235623 2.388180 0.000000
v 0.043857 2.027985 0.000000
v 0.002033 2.036562 0.067850
v 0.002033 2.036562 -0.067849
v 0.117156 2.012953 0.000000
v 0.003522 1.621103 0.000000
v -0.039173 1.621103 0.067850
v -0.039173 1.621103 -0.067850
v 0.078346 1.621103 0.000000
v 0.003522 1.214746 0.000000
v -0.039173 1.214746 0.067850
v -0.039173 1.214746 -0.067850
v 0.078346 1.214746 0.000000
v 0.003522 0.808390 0.000000
v -0.039173 0.808390 0.067850
v -0.039173 0.808390 -0.067850
v 0.078346 0.808390 0.000000
v 2.333051 3.577483 0.000001
v 2.340629 3.619500 -0.509742
v 2.340629 3.619500 0.509743
v 2.319769 3.503847 0.000001
v 3.047092 3.429436 0.000001
v 3.067910 3.466711 -0.730453
v 3.010607 3.364110 0.000001
v 3.067910 3.466711 0.730454
v 3.859657 2.959716 0.000000
v 3.884864 2.994175 -0.858248
v 3.815480 2.899324 0.000001
v 3.884864 2.994175 0.858249
v 4.599494 2.320817 0.000000
v 4.624701 2.355276 -0.673639
v 4.555318 2.260425 0.000000
v 4.624701 2.355276 0.673640
v 5.296393 1.610792 0.000000
v 4.783575 2.179185 0.514305
v 5.097495 1.831245 0.199475
v 4.721381 2.220540 0.267762
v 4.911717 2.011818 0.101970
v 4.705325 2.170610 0.265612
v 4.902908 1.981931 0.103304
v 5.102584 1.780687 0.000000
v 4.889940 1.967092 0.000000
v 4.913537 2.000859 0.000000
v 5.091488 1.819557 0.000000
vt 0.330942 0.364041
vt 0.329884 0.208343
vt 0.530593 0.208343
vt 0.530922 0.391174
vt 0.325857 0.958409
vt 0.323157 0.800058
vt 0.524638 0.800058
vt 0.525681 0.985410
vt 0.325857 0.641706
vt 0.525681 0.614705
vt 0.330942 0.052645
vt 0.530922 0.025513
vt 0.738957 0.208343
vt 0.737992 0.351552
vt 0.734178 0.800058
vt 0.732444 0.944924
vt 0.732444 0.655191
vt 0.737992 0.065135
vt 0.834110 0.208343
vt 0.888027 0.208343
vt 0.777933 0.875009
vt 0.782254 0.910659
vt 0.888412 0.800058
vt 0.828484 0.800058
vt 0.788164 0.099008
vt 0.772468 0.151420
vt 0.832256 0.186665
vt 0.847462 0.826643
vt 0.880675 0.842955
vt 0.943033 0.800058
vt 0.887300 0.165937
vt 0.950112 0.208343
vt 0.042595 0.545878
vt 0.042608 0.529971
vt 0.123243 0.530038
vt 0.123230 0.545946
vt 0.097917 0.498091
vt 0.097917 0.475305
vt 0.166151 0.475304
vt 0.166151 0.498091
vt 0.097917 0.452519
vt 0.166151 0.452519
vt 0.859462 0.593851
vt 0.930504 0.634867
vt 0.885272 0.634867
vt 0.042581 0.561786
vt 0.123217 0.561853
vt 0.890876 0.545944
vt 0.890801 0.529199
vt 0.978892 0.529071
vt 0.979183 0.546107
vt 0.890940 0.562735
vt 0.978996 0.562789
vt 0.828933 0.473681
vt 0.828374 0.448862
vt 0.906659 0.447009
vt 0.909631 0.474021
vt 0.829237 0.499183
vt 0.907913 0.499803
vt 0.803053 0.545971
vt 0.802988 0.529205
vt 0.803118 0.562739
vt 0.752138 0.474158
vt 0.751791 0.449072
vt 0.752471 0.499292
vt 0.715238 0.545976
vt 0.715173 0.529209
vt 0.715303 0.562743
vt 0.675501 0.474327
vt 0.675168 0.449222
vt 0.675834 0.499436
vt 0.627422 0.545980
vt 0.627357 0.529213
vt 0.627488 0.562747
vt 0.598875 0.474472
vt 0.598542 0.449368
vt 0.599206 0.499581
vt 0.539608 0.545979
vt 0.539543 0.529217
vt 0.539672 0.562750
vt 0.522266 0.474587
vt 0.521929 0.449518
vt 0.522575 0.499720
vt 0.451877 0.545814
vt 0.451771 0.529224
vt 0.451834 0.562725
vt 0.446003 0.474306
vt 0.445490 0.449744
vt 0.445855 0.499696
vt 0.366166 0.546070
vt 0.365661 0.529955
vt 0.365702 0.562154
vt 0.372766 0.475095
vt 0.371337 0.451696
vt 0.371640 0.498412
vt 0.284515 0.546020
vt 0.284505 0.530165
vt 0.284503 0.561987
vt 0.302691 0.475166
vt 0.302590 0.452480
vt 0.302677 0.498103
vt 0.203865 0.546011
vt 0.203878 0.530105
vt 0.203852 0.561920
vt 0.234388 0.475295
vt 0.234383 0.452517
vt 0.234389 0.498092
vt 0.044565 0.225129
vt 0.045939 0.208343
vt 0.173398 0.208343
vt 0.174412 0.316919
vt 0.171031 0.910646
vt 0.047890 0.800058
vt 0.170033 0.800058
vt 0.171031 0.689470
vt 0.044565 0.191557
vt 0.174412 0.099767
vt 0.037487 0.826432
vt 0.037487 0.773684
vt 0.859462 0.675883
vn 0.5030 0.8626 0.0535
vn -0.5036 -0.8515 0.1460
vn -0.5036 -0.8515 -0.1460
vn 0.5030 0.8626 -0.0535
vn 0.6486 0.7591 0.0555
vn -0.6352 -0.7574 0.1513
vn -0.6352 -0.7574 -0.1513
vn 0.6486 0.7591 -0.0555
vn 0.7123 0.6991 0.0624
vn -0.6772 -0.7114 0.1882
vn -0.6495 -0.7409 -0.1712
vn 0.7123 0.6991 -0.0624
vn 0.5269 -0.1727 0.8322
vn 0.9176 -0.2831 -0.2790
vn -0.3469 0.1436 0.9269
vn -0.6433 -0.7544 0.1309
vn -0.6495 -0.7409 0.1712
vn -0.6520 -0.7374 0.1762
vn -1.0000 0.0000 -0.0000
vn -0.8464 0.0000 -0.5326
vn 0.5000 -0.0000 0.8660
vn 0.5000 0.0000 -0.8660
vn 0.0000 -1.0000 -0.0000
vn -0.8464 -0.0000 0.5326
vn -0.3270 0.9450 -0.0000
vn -0.2768 0.7999 -0.5326
vn 0.0457 0.9798 -0.1946
vn 0.0378 0.9993 -0.0000
vn -0.2768 0.7999 0.5326
vn 0.0457 0.9798 0.1946
vn 0.1635 -0.4725 -0.8660
vn -0.2305 -0.5111 -0.8281
vn -0.1045 -0.7716 -0.6274
vn 0.1635 -0.4725 0.8660
vn -0.1045 -0.7716 0.6274
vn -0.2305 -0.5111 0.8281
vn -0.5143 0.8576 -0.0000
vn -0.4353 0.7259 -0.5326
vn -0.4353 0.7259 0.5326
vn 0.2572 -0.4288 -0.8660
vn 0.2572 -0.4288 0.8660
vn -0.6796 0.7335 -0.0000
vn -0.5752 0.6209 -0.5326
vn -0.5752 0.6209 0.5326
vn 0.3398 -0.3668 -0.8660
vn 0.3398 -0.3668 0.8660
vn -0.8159 0.5781 -0.0000
vn -0.6906 0.4893 -0.5326
vn -0.6906 0.4893 0.5326
vn 0.4080 -0.2891 -0.8660
vn 0.4080 -0.2891 0.8660
vn -0.9174 0.3980 -0.0000
vn -0.7764 0.3369 -0.5326
vn -0.7764 0.3369 0.5326
vn 0.4587 -0.1990 -0.8660
vn 0.4587 -0.1990 0.8660
vn -0.9796 0.2010 -0.0000
vn -0.8291 0.1701 -0.5326
vn -0.8291 0.1701 0.5326
vn 0.4898 -0.1005 -0.8661
vn 0.4898 -0.1005 0.8661
vn -0.9987 0.0506 0.0000
vn -0.8457 0.0411 -0.5321
vn -0.8457 0.0411 0.5321
vn 0.4999 -0.0254 -0.8657
vn 0.4999 -0.0241 -0.8657
vn 0.4999 -0.0241 0.8657
vn 0.4999 -0.0254 0.8657
vn 0.1762 0.9803 0.0891
vn 0.1919 0.9781 0.0800
vn -0.2040 -0.9597 0.1932
vn -0.1759 -0.9652 0.1934
vn -0.2040 -0.9597 -0.1932
vn -0.1759 -0.9652 -0.1934
vn 0.1919 0.9781 -0.0800
vn 0.1762 0.9803 -0.0891
vn 0.2137 0.9746 0.0672
vn -0.2258 -0.9569 0.1826
vn -0.2258 -0.9569 -0.1826
vn 0.2137 0.9746 -0.0672
usemtl initialShadingGroup
s off
f 54/1/1 53/2/1 57/3/1 58/4/1
f 56/5/2 55/6/2 59/7/2 60/8/2
f 55/6/3 54/9/3 58/10/3 59/7/3
f 53/2/4 56/11/4 60/12/4 57/3/4
f 58/4/5 57/3/5 61/13/5 62/14/5
f 60/8/6 59/7/6 63/15/6 64/16/6
f 59/7/7 58/10/7 62/17/7 63/15/7
f 57/3/8 60/12/8 64/18/8 61/13/8
f 62/14/9 61/13/9 74/19/9 75/20/9
f 64/16/10 63/15/10 70/21/10 66/22/10
f 63/15/11 62/17/11 72/23/11 73/24/11
f 61/13/12 64/18/12 66/25/12 68/26/12
f 69/27/13 68/26/13 70/21/13 71/28/13
f 68/26/14 66/22/14 70/21/14
f 67/29/15 69/27/15 71/28/15
f 70/21/16 63/15/16 73/24/16 71/28/16
f 67/29/17 72/23/17 65/30/17
f 72/23/11 62/17/11 65/30/11
f 71/28/18 73/24/18 72/23/18 67/29/18
f 74/19/12 69/27/12 67/31/12 75/20/12
f 75/20/12 67/31/12 65/32/12
f 75/20/9 65/32/9 62/14/9
f 68/26/12 69/27/12 74/19/12 61/13/12
s 1
f 1/33/19 2/34/20 3/35/20 4/36/19
f 2/37/21 5/38/21 6/39/21 3/40/21
f 5/38/22 7/41/22 8/42/22 6/39/22
f 7/43/23 5/44/23 1/45/23
f 7/46/24 1/33/19 4/36/19 8/47/24
f 9/48/25 10/49/26 11/50/27 12/51/28
f 13/52/29 9/48/25 12/51/28 14/53/30
f 15/54/31 13/55/31 14/56/32 16/57/33
f 10/58/34 15/54/34 16/57/35 11/59/36
f 17/60/37 18/61/38 10/49/26 9/48/25
f 19/62/39 17/60/37 9/48/25 13/52/29
f 20/63/40 19/64/40 13/55/31 15/54/31
f 18/65/41 20/63/41 15/54/34 10/58/34
f 21/66/42 22/67/43 18/61/38 17/60/37
f 23/68/44 21/66/42 17/60/37 19/62/39
f 24/69/45 23/70/45 19/64/40 20/63/40
f 22/71/46 24/69/46 20/63/41 18/65/41
f 25/72/47 26/73/48 22/67/43 21/66/42
f 27/74/49 25/72/47 21/66/42 23/68/44
f 28/75/50 27/76/50 23/70/45 24/69/45
f 26/77/51 28/75/51 24/69/46 22/71/46
f 29/78/52 30/79/53 26/73/48 25/72/47
f 31/80/54 29/78/52 25/72/47 27/74/49
f 32/81/55 31/82/55 27/76/50 28/75/50
f 30/83/56 32/81/56 28/75/51 26/77/51
f 33/84/57 34/85/58 30/79/53 29/78/52
f 35/86/59 33/84/57 29/78/52 31/80/54
f 36/87/60 35/88/60 31/82/55 32/81/55
f 34/89/61 36/87/61 32/81/56 30/83/56
f 37/90/62 38/91/63 34/85/58 33/84/57
f 39/92/64 37/90/62 33/84/57 35/86/59
f 40/93/65 39/94/66 35/88/60 36/87/60
f 38/95/67 40/93/68 36/87/61 34/89/61
f 41/96/19 42/97/20 38/91/63 37/90/62
f 43/98/24 41/96/19 37/90/62 39/92/64
f 44/99/22 43/100/22 39/94/66 40/93/65
f 42/101/21 44/99/21 40/93/68 38/95/67
f 45/102/19 46/103/20 42/97/20 41/96/19
f 47/104/24 45/102/19 41/96/19 43/98/24
f 48/105/22 47/106/22 43/100/22 44/99/22
f 46/107/21 48/105/21 44/99/21 42/101/21
f 4/36/19 3/35/20 46/103/20 45/102/19
f 8/47/24 4/36/19 45/102/19 47/104/24
f 6/39/22 8/42/22 47/106/22 48/105/22
f 3/40/21 6/39/21 48/105/21 46/107/21
f 14/108/30 12/109/28 49/110/69 50/111/70
f 51/112/71 16/113/35 52/114/72
f 16/113/33 50/115/73 52/114/74
f 12/109/28 11/116/27 51/117/75 49/110/76
f 50/111/70 49/110/69 53/2/77 54/1/77
f 51/112/71 52/114/72 55/6/78 56/5/78
f 52/114/74 50/115/73 54/9/79 55/6/79
f 49/110/76 51/117/75 56/11/80 53/2/80
f 11/118/36 16/113/35 51/112/71
f 16/113/33 14/119/32 50/115/73
f 1/45/23 5/44/23 2/120/23
